<svg width="1024" height="1024" viewBox="0 0 1024 1024" fill="none" xmlns="http://www.w3.org/2000/svg">
  <defs>
    <mask id="mask0">
      <!-- Everything visible starts as white (opaque) -->
      <rect width="1024" height="1024" fill="white"/>
      <!-- Blue paths become transparent holes -->
      <path d="M435.233 492.463C488.589 450.395 581.833 466.257 610.812 520.453L623.754 505.359C601.405 471.106 563.703 451.054 522.804 451.069C481.903 451.077 443.767 471.717 421.392 505.954C425.331 501.522 430.282 496.221 435.233 492.463Z" fill="black"/>
      <path d="M589.41 545.422L601.328 531.512C581.816 499.36 551.873 487.836 522.803 487.836C493.553 487.836 467.905 502.546 453.195 525.29C454.401 524.085 455.087 523.398 456.28 522.556C492.71 492.281 566.957 502.815 589.41 545.422Z" fill="black"/>
      <path d="M484.494 544.964C491.18 540.053 503.134 539.704 511.43 539.732C525.466 539.732 550.912 539.228 571.023 566.871L581.332 554.852C572.055 537.2 543.219 527.342 527.304 527.342C511.415 527.342 492.866 533.326 484.494 544.964Z" fill="black"/>
      <path d="M339.2 458.6L512 660.2L684.8 458.6" stroke="black" stroke-width="21.6" stroke-linecap="round" stroke-linejoin="round"/>
    </mask>
  </defs>

  <!-- Wrap main content in a group for centering + scaling -->
  <g id="main-content" mask="url(#mask0)" transform="translate(512, 512) scale(1) translate(-512, -512)">
    <path d="M590 -169H434C427.373 -169 422 -166.314 422 -163V425C422 428.314 427.373 431 434 431H590C596.627 431 602 428.314 602 425V-163C602 -166.314 596.627 -169 590 -169Z" fill="#ECEFF4"/>
    <path d="M512 685.4L296 433.4C296 433.4 300.8 433.4 310.4 433.4H713.6C723.2 433.4 728 433.4 728 433.4L512 685.4Z" fill="#ECEFF4" stroke="#ECEFF4" stroke-width="28.8" stroke-linecap="round" stroke-linejoin="round"/>
  </g>

  <!-- Debug outline for 1024x1024 canvas -->
<!--  <rect x="0.5" y="0.5" width="1023" height="1023" stroke="#FF0000" stroke-width="1" fill="none"/>-->
</svg>
