<?xml version="1.0" encoding="UTF-8" standalone="no"?>
<svg
   width="1024"
   height="1024"
   viewBox="0 0 1024 1024"
   version="1.1"
   id="svg7"
   sodipodi:docname="app-icon.svg"
   inkscape:version="1.3.2 (091e20e, 2023-11-25)"
   xmlns:inkscape="http://www.inkscape.org/namespaces/inkscape"
   xmlns:sodipodi="http://sodipodi.sourceforge.net/DTD/sodipodi-0.dtd"
   xmlns="http://www.w3.org/2000/svg"
   xmlns:svg="http://www.w3.org/2000/svg">
  <sodipodi:namedview
     id="namedview7"
     pagecolor="#ffffff"
     bordercolor="#666666"
     borderopacity="1.0"
     inkscape:showpageshadow="2"
     inkscape:pageopacity="0.0"
     inkscape:pagecheckerboard="0"
     inkscape:deskcolor="#d1d1d1"
     inkscape:zoom="1.462269"
     inkscape:cx="633.60435"
     inkscape:cy="597.70124"
     inkscape:window-width="1920"
     inkscape:window-height="1029"
     inkscape:window-x="1728"
     inkscape:window-y="23"
     inkscape:window-maximized="0"
     inkscape:current-layer="g7" />
  <!-- Gradient Definition -->
  <defs
     id="defs2">
    <linearGradient
       id="bgGradient"
       x1="0%"
       y1="0%"
       x2="86.6%"
       y2="50%"
       gradientTransform="rotate(-60)">
      <stop
         offset="0%"
         style="stop-color:#5E81AC;stop-opacity:1"
         id="stop1" />
      <stop
         offset="100%"
         style="stop-color:#81A1C1;stop-opacity:1"
         id="stop2" />
    </linearGradient>
  </defs>
  <!-- Background -->
  <rect
     width="1024"
     height="1024"
     fill="url(#bgGradient)"
     id="rect2" />
  <!--        rx="180"-->
  <!-- Download Arrow -->
  <!-- Arrow shaft (extends to top) -->
  <g
     id="arrowShaft"
     transform="translate(512, 345) scale(2, 1.0) translate(-512, -345)">
    <rect
       x="437"
       y="-10"
       width="150"
       height="700"
       fill="#ECEFF4"
       rx="10"
       id="rect3" />
  </g>
  <!-- Arrow head (pointing down) with rounded corners -->
  <g
     transform="translate(512, 699) scale(1.2) translate(-512, -699)"
     id="g7">
    <path
       d="M 512 874 L 212 524 Q 212 524, 232 524 L 792 524 Q 812 524, 812 524 Z"
       fill="#ECEFF4"
       stroke="#ECEFF4"
       stroke-width="40"
       stroke-linejoin="round"
       stroke-linecap="round"
       id="path3" />
    <!-- Audible-style swooping arcs - scaled and positioned -->
    <g
       transform="matrix(18,0,0,18,310.87865,443.81556)"
       id="g6">
      <!-- Largest outer arc -->
      <path
         d="M 5.25,9.012 C 9.367,5.766 16.579775,7.0229308 18.815813,11.204734 l -0.0017,-0.01212 L 19.83,10.053 C 18.105585,7.4100038 15.162794,5.8169162 12.007,5.818 8.851099,5.8186179 5.9084635,7.4112136 4.182,10.053 4.486,9.711 4.868,9.302 5.25,9.012 Z"
         fill="#5e81ac"
         id="path4"
         sodipodi:nodetypes="ccccccc" />
      <!-- Middle arc -->
      <path
         d="m 17.175862,13.167629 0.918984,-1.08383 C 16.589272,9.602974 14.25,8.655 12.007,8.655 9.75,8.655 7.771,9.79 6.636,11.545 6.729,11.452 6.782,11.399 6.874,11.334 9.685,8.998 15.443384,9.8800552 17.175862,13.167629 Z"
         fill="#5e81ac"
         id="path5"
         sodipodi:nodetypes="ccsccc" />
      <!-- Smallest inner arc -->
      <path
         d="m 9.051,13.063 c 0.5159504,-0.378888 1.438322,-0.405837 2.078444,-0.403647 1.083,0 3.057035,-0.02785 4.608809,2.105086 l 0.764208,-0.966108 c -0.715813,-1.36198 -2.920195,-2.095028 -4.148195,-2.095028 -1.226,0 -2.657266,0.461697 -3.303266,1.359697 z"
         fill="#5e81ac"
         id="path6"
         sodipodi:nodetypes="ccccsc" />
    </g>
    <!-- Inner chevron - just two downward-facing sides -->
    <path
       d="M 272 559 L 512 839 L 752 559"
       fill="none"
       stroke="#5E81AC"
       stroke-width="30"
       stroke-linejoin="round"
       stroke-linecap="round"
       id="path7" />
  </g>
</svg>
